<!--?xml version="1.0" encoding="utf-8"?-->
<!-- Generator: Adobe Illustrator 18.1.1, SVG Export Plug-In . SVG Version: 6.00 Build 0)  -->

<svg version="1.1" id="_x32_" xmlns="http://www.w3.org/2000/svg" xmlns:xlink="http://www.w3.org/1999/xlink" x="0px" y="0px" viewBox="0 0 512 512" style="width: 256px; height: 256px; opacity: 1;" xml:space="preserve">
<style type="text/css">
	.st0{fill:#4B4B4B;}
</style>
<g>
	<path class="st0" d="M512,191.186c0-29.664-24.031-53.708-53.694-53.708H42.852c-7.75,0-14.628,4.996-17.022,12.369L3.075,219.879
		C1.036,226.133,0,232.663,0,239.247v94.544h68.218c-0.06,0.859-0.256,1.682-0.256,2.567c0,21.086,17.083,38.164,38.151,38.164
		c21.073,0,38.156-17.078,38.156-38.164c0-0.885-0.194-1.708-0.259-2.567h186.462c-0.052,0.859-0.256,1.682-0.256,2.567
		c0,21.086,17.083,38.164,38.151,38.164c21.073,0,38.156-17.078,38.156-38.164c0-0.885-0.208-1.708-0.26-2.567H512V191.186z
		 M75.66,288.557H30.536v-49.682c0-3.922,0.62-7.807,1.83-11.537l20.765-63.89h22.53V288.557z M174.198,226.28h-74.65v-62.832h74.65
		V226.28z M275.299,226.28h-77.214v-62.832h77.214V226.28z M376.395,226.28h-77.222v-62.832h77.222V226.28z M481.46,226.28h-81.186
		v-62.832h52.502c15.817,0,28.684,12.872,28.684,28.692V226.28z" style="fill: rgb(75, 75, 75);"></path>
</g>
</svg>
